<svg xmlns="http://www.w3.org/2000/svg" width="240" height="240" viewBox="0 0 100 100" role="img" aria-label="Children’s Council — star buddy">
  <path d="M 50.00 18.00 C 53.20 18.00, 54.98 30.71, 59.60 33.37 C 64.22 36.04, 76.11 31.23, 77.71 34.00 C 79.31 36.77, 69.20 44.67, 69.20 50.00 C 69.20 55.33, 79.31 63.23, 77.71 66.00 C 76.11 68.77, 64.22 63.96, 59.60 66.63 C 54.98 69.29, 53.20 82.00, 50.00 82.00 C 46.80 82.00, 45.02 69.29, 40.40 66.63 C 35.78 63.96, 23.89 68.77, 22.29 66.00 C 20.69 63.23, 30.80 55.33, 30.80 50.00 C 30.80 44.67, 20.69 36.77, 22.29 34.00 C 23.89 31.23, 35.78 36.04, 40.40 33.37 C 45.02 30.71, 46.80 18.00, 50.00 18.00 Z" fill="#efb87e"></path>
  <ellipse cx="36.50" cy="47.25" rx="4.65" ry="6.45" fill="#23314f"></ellipse>
  <ellipse cx="63.50" cy="47.25" rx="4.65" ry="6.45" fill="#23314f"></ellipse>
  <circle cx="38.30" cy="44.85" r="1.50" fill="#ffffff"></circle>
  <circle cx="65.30" cy="44.85" r="1.50" fill="#ffffff"></circle>
  <path d="M 40.70 60.75 Q 50.00 68.55 59.30 60.75" fill="none" stroke="#23314f" stroke-width="2.85" stroke-linecap="round"></path>
</svg>