<svg xmlns="http://www.w3.org/2000/svg" width="240" height="240" viewBox="0 0 100 100" role="img" aria-label="Children’s Council — scallop buddy">
  <path d="M 85.20 50.00 C 85.20 50.41, 85.08 50.84, 84.86 51.24 C 84.64 51.65, 84.29 52.05, 83.88 52.42 C 83.48 52.80, 82.95 53.15, 82.42 53.49 C 81.89 53.82, 81.27 54.12, 80.68 54.41 C 80.10 54.70, 79.47 54.96, 78.93 55.22 C 78.38 55.48, 77.83 55.71, 77.39 55.96 C 76.95 56.21, 76.56 56.44, 76.28 56.71 C 76.00 56.97, 75.81 57.24, 75.71 57.55 C 75.62 57.86, 75.64 58.19, 75.73 58.56 C 75.82 58.94, 76.03 59.35, 76.26 59.80 C 76.50 60.24, 76.83 60.73, 77.16 61.25 C 77.48 61.76, 77.86 62.32, 78.20 62.88 C 78.53 63.44, 78.89 64.03, 79.16 64.60 C 79.43 65.16, 79.67 65.75, 79.81 66.28 C 79.95 66.81, 80.03 67.34, 80.00 67.80 C 79.96 68.26, 79.84 68.68, 79.61 69.03 C 79.39 69.38, 79.05 69.67, 78.65 69.89 C 78.25 70.11, 77.74 70.26, 77.19 70.36 C 76.65 70.45, 76.02 70.47, 75.39 70.46 C 74.76 70.45, 74.07 70.37, 73.43 70.30 C 72.78 70.23, 72.11 70.11, 71.51 70.03 C 70.91 69.95, 70.33 69.85, 69.82 69.82 C 69.31 69.79, 68.86 69.78, 68.48 69.85 C 68.10 69.92, 67.79 70.04, 67.55 70.25 C 67.31 70.47, 67.14 70.75, 67.02 71.12 C 66.89 71.48, 66.84 71.93, 66.80 72.44 C 66.76 72.94, 66.77 73.54, 66.76 74.14 C 66.76 74.75, 66.78 75.43, 66.76 76.08 C 66.74 76.73, 66.72 77.42, 66.64 78.04 C 66.56 78.67, 66.45 79.29, 66.28 79.81 C 66.11 80.34, 65.89 80.82, 65.61 81.19 C 65.34 81.56, 65.00 81.85, 64.62 82.02 C 64.25 82.19, 63.81 82.26, 63.35 82.23 C 62.89 82.19, 62.38 82.04, 61.87 81.83 C 61.36 81.61, 60.82 81.29, 60.30 80.94 C 59.77 80.59, 59.24 80.15, 58.73 79.74 C 58.23 79.33, 57.73 78.87, 57.27 78.48 C 56.81 78.09, 56.37 77.69, 55.96 77.39 C 55.55 77.09, 55.17 76.83, 54.82 76.69 C 54.46 76.55, 54.13 76.48, 53.81 76.53 C 53.49 76.57, 53.20 76.73, 52.90 76.96 C 52.60 77.20, 52.31 77.56, 52.00 77.96 C 51.69 78.36, 51.38 78.87, 51.05 79.37 C 50.72 79.88, 50.37 80.46, 50.00 81.00 C 49.63 81.54, 49.24 82.11, 48.84 82.59 C 48.43 83.07, 48.00 83.53, 47.58 83.88 C 47.15 84.23, 46.70 84.52, 46.27 84.68 C 45.84 84.84, 45.40 84.90, 44.99 84.84 C 44.58 84.78, 44.18 84.60, 43.81 84.33 C 43.44 84.05, 43.09 83.65, 42.78 83.19 C 42.47 82.74, 42.19 82.17, 41.94 81.59 C 41.68 81.02, 41.47 80.36, 41.27 79.74 C 41.06 79.13, 40.89 78.47, 40.72 77.89 C 40.54 77.31, 40.39 76.74, 40.20 76.26 C 40.02 75.79, 39.84 75.37, 39.62 75.06 C 39.40 74.74, 39.16 74.51, 38.87 74.38 C 38.57 74.24, 38.24 74.21, 37.86 74.25 C 37.48 74.29, 37.04 74.43, 36.57 74.60 C 36.09 74.77, 35.56 75.03, 35.00 75.28 C 34.45 75.52, 33.84 75.83, 33.24 76.08 C 32.64 76.33, 32.00 76.60, 31.40 76.78 C 30.80 76.97, 30.19 77.13, 29.64 77.19 C 29.09 77.26, 28.56 77.26, 28.11 77.16 C 27.66 77.06, 27.26 76.87, 26.95 76.60 C 26.64 76.33, 26.39 75.96, 26.23 75.53 C 26.07 75.10, 26.00 74.57, 25.98 74.02 C 25.96 73.47, 26.04 72.84, 26.13 72.22 C 26.23 71.60, 26.41 70.93, 26.57 70.30 C 26.73 69.67, 26.95 69.03, 27.11 68.44 C 27.28 67.86, 27.46 67.29, 27.56 66.80 C 27.66 66.30, 27.74 65.85, 27.72 65.47 C 27.71 65.08, 27.63 64.76, 27.45 64.49 C 27.28 64.22, 27.02 64.01, 26.68 63.84 C 26.33 63.66, 25.89 63.55, 25.40 63.43 C 24.91 63.32, 24.32 63.25, 23.72 63.16 C 23.12 63.06, 22.44 62.99, 21.80 62.88 C 21.16 62.76, 20.48 62.65, 19.87 62.48 C 19.27 62.31, 18.67 62.12, 18.17 61.87 C 17.68 61.63, 17.23 61.34, 16.90 61.02 C 16.58 60.69, 16.34 60.32, 16.23 59.92 C 16.11 59.52, 16.11 59.08, 16.20 58.63 C 16.30 58.18, 16.52 57.69, 16.81 57.22 C 17.09 56.75, 17.49 56.26, 17.91 55.79 C 18.33 55.32, 18.84 54.85, 19.32 54.41 C 19.79 53.97, 20.32 53.54, 20.78 53.14 C 21.23 52.74, 21.69 52.36, 22.04 52.00 C 22.39 51.64, 22.70 51.30, 22.90 50.97 C 23.09 50.63, 23.20 50.32, 23.20 50.00 C 23.20 49.68, 23.09 49.37, 22.90 49.03 C 22.70 48.70, 22.39 48.36, 22.04 48.00 C 21.69 47.64, 21.23 47.26, 20.78 46.86 C 20.32 46.46, 19.79 46.03, 19.32 45.59 C 18.84 45.15, 18.33 44.68, 17.91 44.21 C 17.49 43.74, 17.09 43.25, 16.81 42.78 C 16.52 42.31, 16.30 41.82, 16.20 41.37 C 16.11 40.92, 16.11 40.48, 16.23 40.08 C 16.34 39.68, 16.58 39.31, 16.90 38.98 C 17.23 38.66, 17.68 38.37, 18.17 38.13 C 18.67 37.88, 19.27 37.69, 19.87 37.52 C 20.48 37.35, 21.16 37.24, 21.80 37.12 C 22.44 37.01, 23.12 36.94, 23.72 36.84 C 24.32 36.75, 24.91 36.68, 25.40 36.57 C 25.89 36.45, 26.33 36.34, 26.68 36.16 C 27.02 35.99, 27.28 35.78, 27.45 35.51 C 27.63 35.24, 27.71 34.92, 27.72 34.53 C 27.74 34.15, 27.66 33.70, 27.56 33.20 C 27.46 32.71, 27.28 32.14, 27.11 31.56 C 26.95 30.97, 26.73 30.33, 26.57 29.70 C 26.41 29.07, 26.23 28.40, 26.13 27.78 C 26.04 27.16, 25.96 26.53, 25.98 25.98 C 26.00 25.43, 26.07 24.90, 26.23 24.47 C 26.39 24.04, 26.64 23.67, 26.95 23.40 C 27.26 23.13, 27.66 22.94, 28.11 22.84 C 28.56 22.74, 29.09 22.74, 29.64 22.81 C 30.19 22.87, 30.80 23.03, 31.40 23.22 C 32.00 23.40, 32.64 23.67, 33.24 23.92 C 33.84 24.17, 34.45 24.48, 35.00 24.72 C 35.56 24.97, 36.09 25.23, 36.57 25.40 C 37.04 25.57, 37.48 25.71, 37.86 25.75 C 38.24 25.79, 38.57 25.76, 38.87 25.62 C 39.16 25.49, 39.40 25.26, 39.62 24.94 C 39.84 24.63, 40.02 24.21, 40.20 23.74 C 40.39 23.26, 40.54 22.69, 40.72 22.11 C 40.89 21.53, 41.06 20.87, 41.27 20.26 C 41.47 19.64, 41.68 18.98, 41.94 18.41 C 42.19 17.83, 42.47 17.26, 42.78 16.81 C 43.09 16.35, 43.44 15.95, 43.81 15.67 C 44.18 15.40, 44.58 15.22, 44.99 15.16 C 45.40 15.10, 45.84 15.16, 46.27 15.32 C 46.70 15.48, 47.15 15.77, 47.58 16.12 C 48.00 16.47, 48.43 16.93, 48.84 17.41 C 49.24 17.89, 49.63 18.46, 50.00 19.00 C 50.37 19.54, 50.72 20.12, 51.05 20.63 C 51.38 21.13, 51.69 21.64, 52.00 22.04 C 52.31 22.44, 52.60 22.80, 52.90 23.04 C 53.20 23.27, 53.49 23.43, 53.81 23.47 C 54.13 23.52, 54.46 23.45, 54.82 23.31 C 55.17 23.17, 55.55 22.91, 55.96 22.61 C 56.37 22.31, 56.81 21.91, 57.27 21.52 C 57.73 21.13, 58.23 20.67, 58.73 20.26 C 59.24 19.85, 59.77 19.41, 60.30 19.06 C 60.82 18.71, 61.36 18.39, 61.87 18.17 C 62.38 17.96, 62.89 17.81, 63.35 17.77 C 63.81 17.74, 64.25 17.81, 64.62 17.98 C 65.00 18.15, 65.34 18.44, 65.61 18.81 C 65.89 19.18, 66.11 19.66, 66.28 20.19 C 66.45 20.71, 66.56 21.33, 66.64 21.96 C 66.72 22.58, 66.74 23.27, 66.76 23.92 C 66.78 24.57, 66.76 25.25, 66.76 25.86 C 66.77 26.46, 66.76 27.06, 66.80 27.56 C 66.84 28.07, 66.89 28.52, 67.02 28.88 C 67.14 29.25, 67.31 29.53, 67.55 29.75 C 67.79 29.96, 68.10 30.08, 68.48 30.15 C 68.86 30.22, 69.31 30.21, 69.82 30.18 C 70.33 30.15, 70.91 30.05, 71.51 29.97 C 72.11 29.89, 72.78 29.77, 73.43 29.70 C 74.07 29.63, 74.76 29.55, 75.39 29.54 C 76.02 29.53, 76.65 29.55, 77.19 29.64 C 77.74 29.74, 78.25 29.89, 78.65 30.11 C 79.05 30.33, 79.39 30.62, 79.61 30.97 C 79.84 31.32, 79.96 31.74, 80.00 32.20 C 80.03 32.66, 79.95 33.19, 79.81 33.72 C 79.67 34.25, 79.43 34.84, 79.16 35.40 C 78.89 35.97, 78.53 36.56, 78.20 37.12 C 77.86 37.68, 77.48 38.24, 77.16 38.75 C 76.83 39.27, 76.50 39.76, 76.26 40.20 C 76.03 40.65, 75.82 41.06, 75.73 41.44 C 75.64 41.81, 75.62 42.14, 75.71 42.45 C 75.81 42.76, 76.00 43.03, 76.28 43.29 C 76.56 43.56, 76.95 43.79, 77.39 44.04 C 77.83 44.29, 78.38 44.52, 78.93 44.78 C 79.47 45.04, 80.10 45.30, 80.68 45.59 C 81.27 45.88, 81.89 46.18, 82.42 46.51 C 82.95 46.85, 83.48 47.20, 83.88 47.58 C 84.29 47.95, 84.64 48.35, 84.86 48.76 C 85.08 49.16, 85.20 49.59, 85.20 50.00 Z" fill="#6f8e69"></path>
  <ellipse cx="36.05" cy="46.13" rx="4.81" ry="6.67" fill="#fbf4e7"></ellipse>
  <ellipse cx="63.95" cy="46.13" rx="4.81" ry="6.67" fill="#fbf4e7"></ellipse>
  <circle cx="37.91" cy="43.64" r="1.55" fill="#ffffff"></circle>
  <circle cx="65.81" cy="43.64" r="1.55" fill="#ffffff"></circle>
  <path d="M 40.39 60.08 Q 50.00 68.14 59.61 60.08" fill="none" stroke="#fbf4e7" stroke-width="2.94" stroke-linecap="round"></path>
</svg>