<svg xmlns="http://www.w3.org/2000/svg" width="240" height="240" viewBox="0 0 100 100" role="img" aria-label="Children’s Council — bloom buddy">
  <path d="M 89.00 52.00 C 89.00 52.84, 88.72 53.71, 88.23 54.51 C 87.74 55.30, 86.96 56.08, 86.05 56.75 C 85.15 57.42, 83.98 58.02, 82.80 58.52 C 81.62 59.03, 80.25 59.43, 78.98 59.76 C 77.70 60.10, 76.34 60.32, 75.15 60.54 C 73.96 60.75, 72.79 60.87, 71.84 61.05 C 70.89 61.22, 70.06 61.35, 69.45 61.59 C 68.84 61.83, 68.42 62.09, 68.19 62.50 C 67.95 62.91, 67.94 63.40, 68.03 64.05 C 68.12 64.70, 68.43 65.48, 68.75 66.39 C 69.07 67.30, 69.56 68.37, 69.97 69.51 C 70.38 70.65, 70.87 71.94, 71.21 73.21 C 71.56 74.49, 71.90 75.87, 72.05 77.14 C 72.21 78.42, 72.26 79.73, 72.14 80.85 C 72.01 81.97, 71.73 83.04, 71.29 83.86 C 70.85 84.68, 70.22 85.36, 69.50 85.77 C 68.78 86.19, 67.88 86.39, 66.95 86.36 C 66.02 86.33, 64.95 86.04, 63.92 85.60 C 62.88 85.15, 61.78 84.44, 60.75 83.67 C 59.73 82.90, 58.69 81.92, 57.76 80.98 C 56.84 80.04, 55.96 78.97, 55.18 78.05 C 54.40 77.12, 53.71 76.17, 53.09 75.43 C 52.46 74.70, 51.93 74.04, 51.42 73.64 C 50.90 73.23, 50.47 73.00, 50.00 73.00 C 49.53 73.00, 49.10 73.23, 48.58 73.64 C 48.07 74.04, 47.54 74.70, 46.91 75.43 C 46.29 76.17, 45.60 77.12, 44.82 78.05 C 44.04 78.97, 43.16 80.04, 42.24 80.98 C 41.31 81.92, 40.27 82.90, 39.25 83.67 C 38.22 84.44, 37.12 85.15, 36.08 85.60 C 35.05 86.04, 33.98 86.33, 33.05 86.36 C 32.12 86.39, 31.22 86.19, 30.50 85.77 C 29.78 85.36, 29.15 84.68, 28.71 83.86 C 28.27 83.04, 27.99 81.97, 27.86 80.85 C 27.74 79.73, 27.79 78.42, 27.95 77.14 C 28.10 75.87, 28.44 74.49, 28.79 73.21 C 29.13 71.94, 29.62 70.65, 30.03 69.51 C 30.44 68.37, 30.93 67.30, 31.25 66.39 C 31.57 65.48, 31.88 64.70, 31.97 64.05 C 32.06 63.40, 32.05 62.91, 31.81 62.50 C 31.58 62.09, 31.16 61.83, 30.55 61.59 C 29.94 61.35, 29.11 61.22, 28.16 61.05 C 27.21 60.87, 26.04 60.75, 24.85 60.54 C 23.66 60.32, 22.30 60.10, 21.02 59.76 C 19.75 59.43, 18.38 59.03, 17.20 58.52 C 16.02 58.02, 14.85 57.42, 13.95 56.75 C 13.04 56.08, 12.26 55.30, 11.77 54.51 C 11.28 53.71, 11.00 52.84, 11.00 52.00 C 11.00 51.16, 11.28 50.29, 11.77 49.49 C 12.26 48.70, 13.04 47.92, 13.95 47.25 C 14.85 46.58, 16.02 45.98, 17.20 45.48 C 18.38 44.97, 19.75 44.57, 21.02 44.24 C 22.30 43.90, 23.66 43.68, 24.85 43.46 C 26.04 43.25, 27.21 43.13, 28.16 42.95 C 29.11 42.78, 29.94 42.65, 30.55 42.41 C 31.16 42.17, 31.58 41.91, 31.81 41.50 C 32.05 41.09, 32.06 40.60, 31.97 39.95 C 31.88 39.30, 31.57 38.52, 31.25 37.61 C 30.93 36.70, 30.44 35.63, 30.03 34.49 C 29.62 33.35, 29.13 32.06, 28.79 30.79 C 28.44 29.51, 28.10 28.13, 27.95 26.86 C 27.79 25.58, 27.74 24.27, 27.86 23.15 C 27.99 22.03, 28.27 20.96, 28.71 20.14 C 29.15 19.32, 29.78 18.64, 30.50 18.23 C 31.22 17.81, 32.12 17.61, 33.05 17.64 C 33.98 17.67, 35.05 17.96, 36.08 18.40 C 37.12 18.85, 38.22 19.56, 39.25 20.33 C 40.27 21.10, 41.31 22.08, 42.24 23.02 C 43.16 23.96, 44.04 25.03, 44.82 25.95 C 45.60 26.88, 46.29 27.83, 46.91 28.57 C 47.54 29.30, 48.07 29.96, 48.58 30.36 C 49.10 30.77, 49.53 31.00, 50.00 31.00 C 50.47 31.00, 50.90 30.77, 51.42 30.36 C 51.93 29.96, 52.46 29.30, 53.09 28.57 C 53.71 27.83, 54.40 26.88, 55.18 25.95 C 55.96 25.03, 56.84 23.96, 57.76 23.02 C 58.69 22.08, 59.73 21.10, 60.75 20.33 C 61.78 19.56, 62.88 18.85, 63.92 18.40 C 64.95 17.96, 66.02 17.67, 66.95 17.64 C 67.88 17.61, 68.78 17.81, 69.50 18.23 C 70.22 18.64, 70.85 19.32, 71.29 20.14 C 71.73 20.96, 72.01 22.03, 72.14 23.15 C 72.26 24.27, 72.21 25.58, 72.05 26.86 C 71.90 28.13, 71.56 29.51, 71.21 30.79 C 70.87 32.06, 70.38 33.35, 69.97 34.49 C 69.56 35.63, 69.07 36.70, 68.75 37.61 C 68.43 38.52, 68.12 39.30, 68.03 39.95 C 67.94 40.60, 67.95 41.09, 68.19 41.50 C 68.42 41.91, 68.84 42.17, 69.45 42.41 C 70.06 42.65, 70.89 42.78, 71.84 42.95 C 72.79 43.13, 73.96 43.25, 75.15 43.46 C 76.34 43.68, 77.70 43.90, 78.98 44.24 C 80.25 44.57, 81.62 44.97, 82.80 45.48 C 83.98 45.98, 85.15 46.58, 86.05 47.25 C 86.96 47.92, 87.74 48.70, 88.23 49.49 C 88.72 50.29, 89.00 51.16, 89.00 52.00 Z" fill="#e25f49"></path>
  <circle cx="26.75" cy="60.75" r="6.82" fill="#c0352040" opacity="0.55"></circle>
  <circle cx="73.25" cy="60.75" r="6.82" fill="#c0352040" opacity="0.55"></circle>
  <ellipse cx="36.05" cy="49.13" rx="4.81" ry="6.67" fill="#23314f"></ellipse>
  <ellipse cx="63.95" cy="49.13" rx="4.81" ry="6.67" fill="#23314f"></ellipse>
  <circle cx="37.91" cy="46.64" r="1.55" fill="#ffffff"></circle>
  <circle cx="65.81" cy="46.64" r="1.55" fill="#ffffff"></circle>
  <path d="M 40.39 63.08 Q 50.00 71.14 59.61 63.08" fill="none" stroke="#23314f" stroke-width="2.94" stroke-linecap="round"></path>
</svg>