<svg xmlns="http://www.w3.org/2000/svg" width="240" height="240" viewBox="0 0 100 100" role="img" aria-label="Children’s Council — heart buddy, one colour">
  <defs>
  <mask id="cut-heart" maskUnits="userSpaceOnUse" x="0" y="0" width="100" height="100">
  <rect x="0" y="0" width="100" height="100" fill="#fff"></rect>
  <ellipse cx="36.50" cy="42.25" rx="4.65" ry="6.45" fill="#000"></ellipse>
  <ellipse cx="63.50" cy="42.25" rx="4.65" ry="6.45" fill="#000"></ellipse>
  <path d="M 40.70 55.75 Q 50.00 63.55 59.30 55.75" fill="none" stroke="#000" stroke-width="2.85" stroke-linecap="round"></path>
  </mask>
  </defs>
  <path d="M 50.00 34.00 C 47.14 19.33 29.05 11.71 18.57 21.24 C 9.05 29.81 10.00 42.19 21.43 53.62 C 30.95 63.14 42.38 71.71 50.00 86.00 C 57.62 71.71 69.05 63.14 78.57 53.62 C 90.00 42.19 90.95 29.81 81.43 21.24 C 70.95 11.71 52.86 19.33 50.00 34.00 Z" fill="#23314f" mask="url(#cut-heart)"></path>
</svg>