<svg xmlns="http://www.w3.org/2000/svg" xmlns:xlink="http://www.w3.org/1999/xlink" width="1920" zoomAndPan="magnify" viewBox="0 0 1440 809.999993" height="1080" preserveAspectRatio="xMidYMid meet" version="1.0"><defs><g/><clipPath id="5c7ec0b8eb"><path d="M 350 306 L 435 306 L 435 390 L 350 390 Z M 350 306 " clip-rule="nonzero"/></clipPath><clipPath id="937daef250"><path d="M 408.175781 290.730469 L 450.164062 363.480469 L 377.410156 405.46875 L 335.421875 332.71875 Z M 408.175781 290.730469 " clip-rule="nonzero"/></clipPath><clipPath id="5d6bac174e"><path d="M 408.175781 290.730469 L 450.164062 363.480469 L 377.410156 405.46875 L 335.421875 332.71875 Z M 408.175781 290.730469 " clip-rule="nonzero"/></clipPath><clipPath id="68969bf255"><path d="M 350 425 L 435 425 L 435 509 L 350 509 Z M 350 425 " clip-rule="nonzero"/></clipPath><clipPath id="a78a630989"><path d="M 407.796875 409.707031 L 449.785156 482.460938 L 377.035156 524.449219 L 335.042969 451.695312 Z M 407.796875 409.707031 " clip-rule="nonzero"/></clipPath><clipPath id="6ea5f9d8a8"><path d="M 407.796875 409.707031 L 449.785156 482.460938 L 377.035156 524.449219 L 335.042969 451.695312 Z M 407.796875 409.707031 " clip-rule="nonzero"/></clipPath><clipPath id="667effb048"><path d="M 247 484 L 331 484 L 331 569 L 247 569 Z M 247 484 " clip-rule="nonzero"/></clipPath><clipPath id="6283506876"><path d="M 304.210938 469.492188 L 346.199219 542.246094 L 273.445312 584.234375 L 231.457031 511.484375 Z M 304.210938 469.492188 " clip-rule="nonzero"/></clipPath><clipPath id="dc98332bc5"><path d="M 304.210938 469.492188 L 346.199219 542.246094 L 273.445312 584.234375 L 231.457031 511.484375 Z M 304.210938 469.492188 " clip-rule="nonzero"/></clipPath><clipPath id="6e71f32f0c"><path d="M 143 425 L 228 425 L 228 510 L 143 510 Z M 143 425 " clip-rule="nonzero"/></clipPath><clipPath id="48c8808d7d"><path d="M 201 410.300781 L 242.988281 483.054688 L 170.238281 525.042969 L 128.246094 452.292969 Z M 201 410.300781 " clip-rule="nonzero"/></clipPath><clipPath id="58f45730c5"><path d="M 201 410.300781 L 242.988281 483.054688 L 170.238281 525.042969 L 128.246094 452.292969 Z M 201 410.300781 " clip-rule="nonzero"/></clipPath><clipPath id="1a1312a77a"><path d="M 143 305 L 228 305 L 228 390 L 143 390 Z M 143 305 " clip-rule="nonzero"/></clipPath><clipPath id="e541daad56"><path d="M 200.78125 290.289062 L 242.769531 363.039062 L 170.015625 405.027344 L 128.027344 332.277344 Z M 200.78125 290.289062 " clip-rule="nonzero"/></clipPath><clipPath id="b9a3a25389"><path d="M 200.78125 290.289062 L 242.769531 363.039062 L 170.015625 405.027344 L 128.027344 332.277344 Z M 200.78125 290.289062 " clip-rule="nonzero"/></clipPath><clipPath id="6bc491aeb5"><path d="M 247 245 L 331 245 L 331 330 L 247 330 Z M 247 245 " clip-rule="nonzero"/></clipPath><clipPath id="8d6a5436aa"><path d="M 304.367188 230.5 L 346.355469 303.253906 L 273.605469 345.242188 L 231.613281 272.492188 Z M 304.367188 230.5 " clip-rule="nonzero"/></clipPath><clipPath id="6c8db95835"><path d="M 304.367188 230.5 L 346.355469 303.253906 L 273.605469 345.242188 L 231.613281 272.492188 Z M 304.367188 230.5 " clip-rule="nonzero"/></clipPath><clipPath id="fc2bc7fc6d"><rect x="0" width="839" y="0" height="365"/></clipPath></defs><g clip-path="url(#5c7ec0b8eb)"><g clip-path="url(#937daef250)"><g clip-path="url(#5d6bac174e)"><path fill="#eca1ad" d="M 429.097656 326.984375 C 417.539062 306.953125 391.949219 300.09375 371.921875 311.652344 C 351.890625 323.214844 345.03125 348.800781 356.589844 368.832031 C 368.152344 388.863281 393.738281 395.722656 413.769531 384.160156 C 433.800781 372.601562 440.660156 347.011719 429.097656 326.984375 Z M 429.097656 326.984375 " fill-opacity="1" fill-rule="nonzero"/></g></g></g><g clip-path="url(#68969bf255)"><g clip-path="url(#a78a630989)"><g clip-path="url(#6ea5f9d8a8)"><path fill="#efb87e" d="M 428.722656 445.960938 C 417.160156 425.929688 391.574219 419.070312 371.542969 430.632812 C 351.511719 442.191406 344.652344 467.78125 356.214844 487.808594 C 367.773438 507.839844 393.359375 514.699219 413.390625 503.140625 C 433.421875 491.578125 440.28125 465.992188 428.722656 445.960938 Z M 428.722656 445.960938 " fill-opacity="1" fill-rule="nonzero"/></g></g></g><g clip-path="url(#667effb048)"><g clip-path="url(#6283506876)"><g clip-path="url(#dc98332bc5)"><path fill="#6f8e69" d="M 325.132812 505.746094 C 313.574219 485.71875 287.984375 478.855469 267.957031 490.417969 C 247.925781 501.980469 241.066406 527.566406 252.625 547.597656 C 264.1875 567.628906 289.773438 574.488281 309.804688 562.925781 C 329.835938 551.367188 336.695312 525.777344 325.132812 505.746094 Z M 325.132812 505.746094 " fill-opacity="1" fill-rule="nonzero"/></g></g></g><g clip-path="url(#6e71f32f0c)"><g clip-path="url(#48c8808d7d)"><g clip-path="url(#58f45730c5)"><path fill="#e25f49" d="M 221.925781 446.554688 C 210.363281 426.523438 184.777344 419.664062 164.746094 431.226562 C 144.714844 442.785156 137.855469 468.375 149.414062 488.40625 C 160.976562 508.433594 186.5625 515.296875 206.59375 503.734375 C 226.625 492.171875 233.484375 466.585938 221.925781 446.554688 Z M 221.925781 446.554688 " fill-opacity="1" fill-rule="nonzero"/></g></g></g><g clip-path="url(#1a1312a77a)"><g clip-path="url(#e541daad56)"><g clip-path="url(#b9a3a25389)"><path fill="#2f4da8" d="M 221.703125 326.542969 C 210.144531 306.511719 184.554688 299.652344 164.523438 311.210938 C 144.496094 322.773438 137.632812 348.359375 149.195312 368.390625 C 160.757812 388.421875 186.34375 395.28125 206.375 383.71875 C 226.40625 372.160156 233.265625 346.570312 221.703125 326.542969 Z M 221.703125 326.542969 " fill-opacity="1" fill-rule="nonzero"/></g></g></g><g clip-path="url(#6bc491aeb5)"><g clip-path="url(#8d6a5436aa)"><g clip-path="url(#6c8db95835)"><path fill="#23314f" d="M 325.292969 266.753906 C 313.730469 246.726562 288.144531 239.863281 268.113281 251.425781 C 248.082031 262.984375 241.222656 288.574219 252.78125 308.605469 C 264.34375 328.636719 289.929688 335.496094 309.960938 323.933594 C 329.992188 312.375 336.851562 286.785156 325.292969 266.753906 Z M 325.292969 266.753906 " fill-opacity="1" fill-rule="nonzero"/></g></g></g><g transform="matrix(1, 0, 0, 1, 515, 222)"><g clip-path="url(#fc2bc7fc6d)"><g fill="#23314f" fill-opacity="1"><g transform="translate(0.990488, 167.451688)"><g><path d="M 86.359375 -33.296875 L 89.484375 -35.546875 C 93.410156 -37.859375 96.179688 -39.015625 97.796875 -39.015625 C 101.378906 -39.015625 105.253906 -35.78125 109.421875 -29.3125 C 111.960938 -25.257812 113.234375 -22.019531 113.234375 -19.59375 C 113.234375 -17.164062 112.453125 -15.140625 110.890625 -13.515625 C 109.328125 -11.898438 107.503906 -10.457031 105.421875 -9.1875 C 103.347656 -7.914062 101.359375 -6.703125 99.453125 -5.546875 C 97.546875 -4.390625 93.644531 -2.882812 87.75 -1.03125 C 81.851562 0.808594 76.15625 1.734375 70.65625 1.734375 C 65.164062 1.734375 59.617188 1.015625 54.015625 -0.421875 C 48.410156 -1.867188 42.628906 -4.296875 36.671875 -7.703125 C 30.722656 -11.117188 25.378906 -15.285156 20.640625 -20.203125 C 15.898438 -25.117188 11.992188 -31.421875 8.921875 -39.109375 C 5.859375 -46.796875 4.328125 -55.144531 4.328125 -64.15625 C 4.328125 -73.175781 5.832031 -81.351562 8.84375 -88.6875 C 11.851562 -96.03125 15.695312 -102.097656 20.375 -106.890625 C 25.050781 -111.691406 30.398438 -115.710938 36.421875 -118.953125 C 47.742188 -125.203125 59.128906 -128.328125 70.578125 -128.328125 C 76.003906 -128.328125 81.519531 -127.488281 87.125 -125.8125 C 92.738281 -124.132812 96.988281 -122.425781 99.875 -120.6875 L 104.046875 -118.265625 C 106.128906 -116.992188 107.75 -115.953125 108.90625 -115.140625 C 111.90625 -112.710938 113.40625 -109.96875 113.40625 -106.90625 C 113.40625 -103.84375 112.191406 -100.632812 109.765625 -97.28125 C 105.253906 -91.039062 101.207031 -87.921875 97.625 -87.921875 C 95.539062 -87.921875 92.59375 -89.191406 88.78125 -91.734375 C 83.925781 -95.660156 77.453125 -97.625 69.359375 -97.625 C 61.847656 -97.625 54.453125 -95.023438 47.171875 -89.828125 C 43.703125 -87.285156 40.8125 -83.703125 38.5 -79.078125 C 36.1875 -74.453125 35.03125 -69.21875 35.03125 -63.375 C 35.03125 -57.539062 36.1875 -52.3125 38.5 -47.6875 C 40.8125 -43.0625 43.757812 -39.421875 47.34375 -36.765625 C 54.394531 -31.671875 61.734375 -29.125 69.359375 -29.125 C 72.941406 -29.125 76.320312 -29.585938 79.5 -30.515625 C 82.6875 -31.441406 84.972656 -32.367188 86.359375 -33.296875 Z M 86.359375 -33.296875 "/></g></g></g><g fill="#23314f" fill-opacity="1"><g transform="translate(118.719662, 167.451688)"><g><path d="M 57.578125 -91.03125 C 69.128906 -91.03125 78.75 -86.640625 86.4375 -77.859375 C 94.125 -69.078125 97.96875 -58.328125 97.96875 -45.609375 L 97.96875 -15.09375 C 97.96875 -12.425781 97.878906 -10.425781 97.703125 -9.09375 C 97.535156 -7.769531 96.988281 -6.242188 96.0625 -4.515625 C 94.5625 -1.503906 90.113281 0 82.71875 0 C 75.664062 0 71.269531 -1.503906 69.53125 -4.515625 C 68.613281 -6.242188 68.066406 -7.800781 67.890625 -9.1875 C 67.710938 -10.570312 67.625 -12.65625 67.625 -15.4375 L 67.625 -45.78125 C 67.625 -50.519531 66.296875 -54.21875 63.640625 -56.875 C 60.984375 -59.53125 57.601562 -60.859375 53.5 -60.859375 C 49.394531 -60.859375 45.78125 -59.613281 42.65625 -57.125 C 39.53125 -54.644531 37.738281 -51.847656 37.28125 -48.734375 L 37.28125 -15.09375 C 37.28125 -12.425781 37.191406 -10.425781 37.015625 -9.09375 C 36.847656 -7.769531 36.300781 -6.242188 35.375 -4.515625 C 33.875 -1.503906 29.421875 0 22.015625 0 C 14.734375 0 10.285156 -1.5625 8.671875 -4.6875 C 7.859375 -6.414062 7.363281 -7.914062 7.1875 -9.1875 C 7.019531 -10.457031 6.9375 -12.484375 6.9375 -15.265625 L 6.9375 -118.953125 C 6.9375 -121.609375 7.019531 -123.601562 7.1875 -124.9375 C 7.363281 -126.269531 7.859375 -127.742188 8.671875 -129.359375 C 10.285156 -132.484375 14.796875 -134.046875 22.203125 -134.046875 C 29.484375 -134.046875 33.875 -132.484375 35.375 -129.359375 C 36.300781 -127.628906 36.847656 -126.097656 37.015625 -124.765625 C 37.191406 -123.429688 37.28125 -121.4375 37.28125 -118.78125 L 37.28125 -80.453125 C 43.0625 -87.503906 49.828125 -91.03125 57.578125 -91.03125 Z M 57.578125 -91.03125 "/></g></g></g><g fill="#23314f" fill-opacity="1"><g transform="translate(223.618258, 167.451688)"><g><path d="M 6.9375 -76.125 C 6.9375 -78.78125 7.019531 -80.773438 7.1875 -82.109375 C 7.363281 -83.441406 7.859375 -84.972656 8.671875 -86.703125 C 10.285156 -89.710938 14.796875 -91.21875 22.203125 -91.21875 C 27.742188 -91.21875 31.671875 -90.234375 33.984375 -88.265625 C 35.953125 -86.648438 36.992188 -84.164062 37.109375 -80.8125 C 37.222656 -79.65625 37.28125 -77.976562 37.28125 -75.78125 L 37.28125 -15.09375 C 37.28125 -12.425781 37.191406 -10.425781 37.015625 -9.09375 C 36.847656 -7.769531 36.300781 -6.242188 35.375 -4.515625 C 33.875 -1.503906 29.421875 0 22.015625 0 C 14.734375 0 10.285156 -1.5625 8.671875 -4.6875 C 7.859375 -6.414062 7.363281 -7.914062 7.1875 -9.1875 C 7.019531 -10.457031 6.9375 -12.484375 6.9375 -15.265625 Z M 35.453125 -108.296875 C 34.585938 -106.617188 33.054688 -105.429688 30.859375 -104.734375 C 28.671875 -104.046875 25.753906 -103.703125 22.109375 -103.703125 C 18.460938 -103.703125 15.539062 -104.046875 13.34375 -104.734375 C 11.15625 -105.429688 9.625 -106.644531 8.75 -108.375 C 7.882812 -110.113281 7.363281 -111.644531 7.1875 -112.96875 C 7.019531 -114.300781 6.9375 -116.296875 6.9375 -118.953125 C 6.9375 -121.609375 7.019531 -123.601562 7.1875 -124.9375 C 7.363281 -126.269531 7.859375 -127.742188 8.671875 -129.359375 C 10.285156 -132.484375 14.796875 -134.046875 22.203125 -134.046875 C 29.484375 -134.046875 33.875 -132.484375 35.375 -129.359375 C 36.300781 -127.628906 36.847656 -126.097656 37.015625 -124.765625 C 37.191406 -123.429688 37.28125 -121.4375 37.28125 -118.78125 C 37.28125 -116.125 37.191406 -114.128906 37.015625 -112.796875 C 36.847656 -111.472656 36.328125 -109.972656 35.453125 -108.296875 Z M 35.453125 -108.296875 "/></g></g></g><g fill="#23314f" fill-opacity="1"><g transform="translate(267.831714, 167.451688)"><g><path d="M 6.9375 -119.125 C 6.9375 -121.789062 7.019531 -123.785156 7.1875 -125.109375 C 7.363281 -126.441406 7.859375 -127.972656 8.671875 -129.703125 C 10.285156 -132.828125 14.796875 -134.390625 22.203125 -134.390625 C 29.253906 -134.390625 33.644531 -132.828125 35.375 -129.703125 C 36.300781 -127.972656 36.847656 -126.410156 37.015625 -125.015625 C 37.191406 -123.628906 37.28125 -121.609375 37.28125 -118.953125 L 37.28125 -38.671875 C 37.28125 -34.503906 37.625 -31.867188 38.3125 -30.765625 C 39.007812 -29.671875 40.539062 -29.125 42.90625 -29.125 C 45.28125 -29.125 46.875 -29.035156 47.6875 -28.859375 C 48.5 -28.691406 49.484375 -28.203125 50.640625 -27.390625 C 52.953125 -25.890625 54.109375 -21.789062 54.109375 -15.09375 C 54.109375 -7.800781 52.953125 -3.347656 50.640625 -1.734375 C 47.628906 0.347656 40.457031 0.695312 29.125 -0.6875 C 20.226562 -1.84375 14.453125 -4.789062 11.796875 -9.53125 C 8.554688 -15.195312 6.9375 -24.21875 6.9375 -36.59375 Z M 6.9375 -119.125 "/></g></g></g><g fill="#23314f" fill-opacity="1"><g transform="translate(324.528963, 167.451688)"><g><path d="M 68.234375 -129.453125 C 69.097656 -131.128906 70.628906 -132.3125 72.828125 -133 C 75.023438 -133.695312 77.941406 -134.046875 81.578125 -134.046875 C 85.222656 -134.046875 88.144531 -133.695312 90.34375 -133 C 92.539062 -132.3125 94.070312 -131.097656 94.9375 -129.359375 C 95.800781 -127.628906 96.320312 -126.097656 96.5 -124.765625 C 96.675781 -123.429688 96.765625 -121.4375 96.765625 -118.78125 L 96.765625 -15.265625 C 96.765625 -12.597656 96.675781 -10.597656 96.5 -9.265625 C 96.320312 -7.941406 95.773438 -6.472656 94.859375 -4.859375 C 93.117188 -1.734375 88.234375 -0.171875 80.203125 -0.171875 C 72.171875 -0.171875 67.691406 -3.003906 66.765625 -8.671875 C 61.910156 -3.117188 55.144531 -0.34375 46.46875 -0.34375 C 36.0625 -0.34375 26.582031 -4.878906 18.03125 -13.953125 C 9.476562 -23.035156 5.203125 -33.613281 5.203125 -45.6875 C 5.203125 -57.769531 9.507812 -68.378906 18.125 -77.515625 C 26.738281 -86.648438 36.1875 -91.21875 46.46875 -91.21875 C 55.03125 -91.21875 61.679688 -88.328125 66.421875 -82.546875 L 66.421875 -118.953125 C 66.421875 -121.609375 66.503906 -123.601562 66.671875 -124.9375 C 66.847656 -126.269531 67.367188 -127.773438 68.234375 -129.453125 Z M 40.046875 -35.203125 C 43.054688 -32.078125 46.695312 -30.515625 50.96875 -30.515625 C 55.25 -30.515625 58.804688 -32.078125 61.640625 -35.203125 C 64.472656 -38.328125 65.890625 -41.765625 65.890625 -45.515625 C 65.890625 -49.273438 64.53125 -52.769531 61.8125 -56 C 59.101562 -59.238281 55.4375 -60.859375 50.8125 -60.859375 C 46.1875 -60.859375 42.484375 -59.269531 39.703125 -56.09375 C 36.929688 -52.914062 35.546875 -49.421875 35.546875 -45.609375 C 35.546875 -41.796875 37.046875 -38.328125 40.046875 -35.203125 Z M 40.046875 -35.203125 "/></g></g></g><g fill="#23314f" fill-opacity="1"><g transform="translate(428.213905, 167.451688)"><g><path d="M 69.015625 -90.34375 C 71.210938 -89.644531 73.03125 -88.457031 74.46875 -86.78125 C 75.914062 -85.113281 76.640625 -82.425781 76.640625 -78.71875 C 76.640625 -75.019531 75.539062 -70.972656 73.34375 -66.578125 C 71.15625 -62.191406 67.976562 -60 63.8125 -60 C 61.726562 -60 59.734375 -60.457031 57.828125 -61.375 C 55.921875 -62.300781 53.40625 -62.765625 50.28125 -62.765625 C 47.164062 -62.765625 44.25 -61.664062 41.53125 -59.46875 C 38.8125 -57.28125 37.453125 -54.625 37.453125 -51.5 L 37.453125 -15.09375 C 37.453125 -12.425781 37.363281 -10.425781 37.1875 -9.09375 C 37.019531 -7.769531 36.472656 -6.242188 35.546875 -4.515625 C 33.816406 -1.503906 29.304688 0 22.015625 0 C 16.472656 0 12.488281 -0.984375 10.0625 -2.953125 C 8.207031 -4.566406 7.164062 -7.050781 6.9375 -10.40625 C 6.9375 -11.5625 6.9375 -13.238281 6.9375 -15.4375 L 6.9375 -76.296875 C 6.9375 -78.953125 7.019531 -80.945312 7.1875 -82.28125 C 7.363281 -83.613281 7.859375 -85.085938 8.671875 -86.703125 C 10.285156 -89.828125 14.796875 -91.390625 22.203125 -91.390625 C 29.128906 -91.390625 33.460938 -90.054688 35.203125 -87.390625 C 36.472656 -85.546875 37.109375 -83.640625 37.109375 -81.671875 C 37.679688 -82.484375 38.515625 -83.46875 39.609375 -84.625 C 40.710938 -85.78125 43.054688 -87.335938 46.640625 -89.296875 C 50.222656 -91.265625 53.375 -92.25 56.09375 -92.25 C 58.8125 -92.25 61.09375 -92.101562 62.9375 -91.8125 C 64.789062 -91.53125 66.816406 -91.039062 69.015625 -90.34375 Z M 69.015625 -90.34375 "/></g></g></g><g fill="#23314f" fill-opacity="1"><g transform="translate(507.451345, 167.451688)"><g><path d="M 95.03125 -56.609375 C 95.03125 -49.503906 93.265625 -44.242188 89.734375 -40.828125 C 86.210938 -37.421875 82.3125 -35.71875 78.03125 -35.71875 L 36.9375 -35.71875 C 36.9375 -32.476562 38.84375 -29.757812 42.65625 -27.5625 C 46.46875 -25.375 50.285156 -24.28125 54.109375 -24.28125 C 60.804688 -24.28125 66.0625 -24.972656 69.875 -26.359375 L 71.796875 -27.046875 C 74.566406 -28.316406 76.875 -28.953125 78.71875 -28.953125 C 82.425781 -28.953125 85.609375 -26.351562 88.265625 -21.15625 C 89.765625 -18.03125 90.515625 -15.367188 90.515625 -13.171875 C 90.515625 -2.890625 78.203125 2.25 53.578125 2.25 C 45.023438 2.25 37.425781 0.773438 30.78125 -2.171875 C 24.132812 -5.117188 18.960938 -9.019531 15.265625 -13.875 C 7.972656 -23.238281 4.328125 -33.703125 4.328125 -45.265625 C 4.328125 -59.828125 9.035156 -71.472656 18.453125 -80.203125 C 27.878906 -88.929688 39.644531 -93.296875 53.75 -93.296875 C 69.820312 -93.296875 81.613281 -87.628906 89.125 -76.296875 C 93.0625 -70.285156 95.03125 -63.722656 95.03125 -56.609375 Z M 58.4375 -51.5 C 62.832031 -51.5 65.03125 -53.347656 65.03125 -57.046875 C 65.03125 -59.703125 64.015625 -61.835938 61.984375 -63.453125 C 59.960938 -65.078125 57.070312 -65.890625 53.3125 -65.890625 C 49.5625 -65.890625 45.835938 -64.359375 42.140625 -61.296875 C 38.441406 -58.234375 36.59375 -54.96875 36.59375 -51.5 Z M 58.4375 -51.5 "/></g></g></g><g fill="#23314f" fill-opacity="1"><g transform="translate(606.801612, 167.451688)"><g><path d="M 57.75 -91.390625 C 69.300781 -91.390625 78.921875 -86.96875 86.609375 -78.125 C 94.296875 -69.28125 98.140625 -58.5 98.140625 -45.78125 L 98.140625 -15.265625 C 98.140625 -12.597656 98.050781 -10.597656 97.875 -9.265625 C 97.707031 -7.941406 97.21875 -6.472656 96.40625 -4.859375 C 94.789062 -1.734375 90.285156 -0.171875 82.890625 -0.171875 C 74.679688 -0.171875 69.941406 -2.3125 68.671875 -6.59375 C 67.972656 -8.550781 67.625 -11.5 67.625 -15.4375 L 67.625 -45.953125 C 67.625 -50.691406 66.265625 -54.390625 63.546875 -57.046875 C 60.835938 -59.703125 57.195312 -61.03125 52.625 -61.03125 C 48.0625 -61.03125 44.363281 -59.644531 41.53125 -56.875 C 38.695312 -54.101562 37.28125 -50.460938 37.28125 -45.953125 L 37.28125 -15.265625 C 37.28125 -12.597656 37.191406 -10.597656 37.015625 -9.265625 C 36.847656 -7.941406 36.300781 -6.472656 35.375 -4.859375 C 33.875 -1.734375 29.421875 -0.171875 22.015625 -0.171875 C 14.734375 -0.171875 10.285156 -1.734375 8.671875 -4.859375 C 7.859375 -6.585938 7.363281 -8.113281 7.1875 -9.4375 C 7.019531 -10.769531 6.9375 -12.769531 6.9375 -15.4375 L 6.9375 -76.8125 C 6.9375 -79.363281 7.019531 -81.300781 7.1875 -82.625 C 7.363281 -83.957031 7.914062 -85.429688 8.84375 -87.046875 C 10.457031 -89.941406 14.910156 -91.390625 22.203125 -91.390625 C 29.253906 -91.390625 33.585938 -90.054688 35.203125 -87.390625 C 36.359375 -85.429688 36.9375 -83.0625 36.9375 -80.28125 C 37.394531 -81.09375 38.429688 -82.25 40.046875 -83.75 C 41.671875 -85.257812 43.234375 -86.472656 44.734375 -87.390625 C 48.671875 -90.054688 53.007812 -91.390625 57.75 -91.390625 Z M 57.75 -91.390625 "/></g></g></g><g fill="#23314f" fill-opacity="1"><g transform="translate(711.873545, 167.451688)"><g><path d="M 33.8125 -123.46875 C 35.78125 -121.5 36.765625 -118.144531 36.765625 -113.40625 L 36.765625 -110.640625 C 36.765625 -107.742188 36.648438 -105.601562 36.421875 -104.21875 C 35.609375 -94.039062 32.597656 -85.3125 27.390625 -78.03125 C 22.191406 -70.75 15.601562 -67.109375 7.625 -67.109375 C 6.820312 -67.109375 6.101562 -67.710938 5.46875 -68.921875 C 4.832031 -70.140625 4.515625 -71.726562 4.515625 -73.6875 C 4.515625 -75.65625 4.769531 -77.1875 5.28125 -78.28125 C 5.800781 -79.382812 6.378906 -80.019531 7.015625 -80.1875 C 7.660156 -80.363281 8.15625 -80.484375 8.5 -80.546875 C 8.84375 -80.609375 9.476562 -80.894531 10.40625 -81.40625 C 11.332031 -81.925781 12.140625 -82.648438 12.828125 -83.578125 C 14.679688 -86.003906 15.722656 -89.765625 15.953125 -94.859375 C 12.023438 -95.429688 9.101562 -96.695312 7.1875 -98.65625 C 5.28125 -100.625 4.328125 -104.789062 4.328125 -111.15625 C 4.328125 -115.78125 4.90625 -119.21875 6.0625 -121.46875 C 7.21875 -123.726562 8.976562 -125.234375 11.34375 -125.984375 C 13.71875 -126.734375 17.390625 -127.109375 22.359375 -127.109375 C 27.335938 -127.109375 31.15625 -125.894531 33.8125 -123.46875 Z M 33.8125 -123.46875 "/></g></g></g><g fill="#23314f" fill-opacity="1"><g transform="translate(752.96607, 167.451688)"><g><path d="M 7.625 -8.15625 C 5.425781 -9.539062 4.328125 -11.734375 4.328125 -14.734375 C 4.328125 -17.742188 6.523438 -22.3125 10.921875 -28.4375 C 12.191406 -30.40625 14.242188 -31.390625 17.078125 -31.390625 C 19.910156 -31.390625 23.753906 -29.972656 28.609375 -27.140625 C 33.460938 -24.304688 37.859375 -22.890625 41.796875 -22.890625 C 48.847656 -22.890625 52.375 -24.273438 52.375 -27.046875 C 52.375 -29.242188 48.5 -30.863281 40.75 -31.90625 C 33.46875 -32.945312 26.242188 -35.664062 19.078125 -40.0625 C 15.722656 -42.132812 12.945312 -45.394531 10.75 -49.84375 C 8.550781 -54.300781 7.453125 -59.59375 7.453125 -65.71875 C 7.453125 -83.988281 19.992188 -93.125 45.078125 -93.125 C 53.285156 -93.125 61.726562 -91.15625 70.40625 -87.21875 C 74.445312 -85.375 76.46875 -83.0625 76.46875 -80.28125 C 76.46875 -77.507812 75.195312 -74.097656 72.65625 -70.046875 C 70.113281 -66.003906 67.515625 -63.984375 64.859375 -63.984375 C 63.460938 -63.984375 60.882812 -64.847656 57.125 -66.578125 C 53.375 -68.316406 49.300781 -69.1875 44.90625 -69.1875 C 38.09375 -69.1875 34.6875 -67.914062 34.6875 -65.375 C 34.6875 -61.90625 38.613281 -59.648438 46.46875 -58.609375 C 54.101562 -57.796875 61.503906 -55.597656 68.671875 -52.015625 C 72.023438 -50.398438 74.828125 -47.597656 77.078125 -43.609375 C 79.328125 -39.617188 80.453125 -34.617188 80.453125 -28.609375 C 80.453125 -22.597656 79.328125 -17.484375 77.078125 -13.265625 C 74.828125 -9.046875 71.675781 -5.894531 67.625 -3.8125 C 60.226562 -0.226562 50.953125 1.5625 39.796875 1.5625 C 28.640625 1.5625 17.914062 -1.675781 7.625 -8.15625 Z M 7.625 -8.15625 "/></g></g></g><g fill="#23314f" fill-opacity="1"><g transform="translate(0.990488, 322.934827)"><g><path d="M 86.359375 -33.296875 L 89.484375 -35.546875 C 93.410156 -37.859375 96.179688 -39.015625 97.796875 -39.015625 C 101.378906 -39.015625 105.253906 -35.78125 109.421875 -29.3125 C 111.960938 -25.257812 113.234375 -22.019531 113.234375 -19.59375 C 113.234375 -17.164062 112.453125 -15.140625 110.890625 -13.515625 C 109.328125 -11.898438 107.503906 -10.457031 105.421875 -9.1875 C 103.347656 -7.914062 101.359375 -6.703125 99.453125 -5.546875 C 97.546875 -4.390625 93.644531 -2.882812 87.75 -1.03125 C 81.851562 0.808594 76.15625 1.734375 70.65625 1.734375 C 65.164062 1.734375 59.617188 1.015625 54.015625 -0.421875 C 48.410156 -1.867188 42.628906 -4.296875 36.671875 -7.703125 C 30.722656 -11.117188 25.378906 -15.285156 20.640625 -20.203125 C 15.898438 -25.117188 11.992188 -31.421875 8.921875 -39.109375 C 5.859375 -46.796875 4.328125 -55.144531 4.328125 -64.15625 C 4.328125 -73.175781 5.832031 -81.351562 8.84375 -88.6875 C 11.851562 -96.03125 15.695312 -102.097656 20.375 -106.890625 C 25.050781 -111.691406 30.398438 -115.710938 36.421875 -118.953125 C 47.742188 -125.203125 59.128906 -128.328125 70.578125 -128.328125 C 76.003906 -128.328125 81.519531 -127.488281 87.125 -125.8125 C 92.738281 -124.132812 96.988281 -122.425781 99.875 -120.6875 L 104.046875 -118.265625 C 106.128906 -116.992188 107.75 -115.953125 108.90625 -115.140625 C 111.90625 -112.710938 113.40625 -109.96875 113.40625 -106.90625 C 113.40625 -103.84375 112.191406 -100.632812 109.765625 -97.28125 C 105.253906 -91.039062 101.207031 -87.921875 97.625 -87.921875 C 95.539062 -87.921875 92.59375 -89.191406 88.78125 -91.734375 C 83.925781 -95.660156 77.453125 -97.625 69.359375 -97.625 C 61.847656 -97.625 54.453125 -95.023438 47.171875 -89.828125 C 43.703125 -87.285156 40.8125 -83.703125 38.5 -79.078125 C 36.1875 -74.453125 35.03125 -69.21875 35.03125 -63.375 C 35.03125 -57.539062 36.1875 -52.3125 38.5 -47.6875 C 40.8125 -43.0625 43.757812 -39.421875 47.34375 -36.765625 C 54.394531 -31.671875 61.734375 -29.125 69.359375 -29.125 C 72.941406 -29.125 76.320312 -29.585938 79.5 -30.515625 C 82.6875 -31.441406 84.972656 -32.367188 86.359375 -33.296875 Z M 86.359375 -33.296875 "/></g></g></g><g fill="#23314f" fill-opacity="1"><g transform="translate(118.719662, 322.934827)"><g><path d="M 4.328125 -45.609375 C 4.328125 -59.484375 9.179688 -70.925781 18.890625 -79.9375 C 28.609375 -88.957031 39.707031 -93.46875 52.1875 -93.46875 C 64.675781 -93.46875 75.71875 -88.988281 85.3125 -80.03125 C 94.90625 -71.070312 99.703125 -59.65625 99.703125 -45.78125 C 99.703125 -36.1875 97.21875 -27.660156 92.25 -20.203125 C 87.28125 -12.742188 81.238281 -7.25 74.125 -3.71875 C 67.019531 -0.195312 59.648438 1.5625 52.015625 1.5625 C 44.390625 1.5625 36.992188 -0.3125 29.828125 -4.0625 C 22.660156 -7.820312 16.617188 -13.375 11.703125 -20.71875 C 6.785156 -28.0625 4.328125 -36.359375 4.328125 -45.609375 Z M 40.578125 -33.203125 C 44.273438 -30.367188 48.03125 -28.953125 51.84375 -28.953125 C 55.664062 -28.953125 59.484375 -30.394531 63.296875 -33.28125 C 67.109375 -36.175781 69.015625 -40.457031 69.015625 -46.125 C 69.015625 -51.789062 67.222656 -56.007812 63.640625 -58.78125 C 60.054688 -61.5625 56.179688 -62.953125 52.015625 -62.953125 C 47.859375 -62.953125 43.988281 -61.503906 40.40625 -58.609375 C 36.820312 -55.722656 35.03125 -51.472656 35.03125 -45.859375 C 35.03125 -40.253906 36.878906 -36.035156 40.578125 -33.203125 Z M 40.578125 -33.203125 "/></g></g></g><g fill="#23314f" fill-opacity="1"><g transform="translate(222.751334, 322.934827)"><g><path d="M 47.515625 -0.34375 C 35.835938 -0.34375 26.15625 -4.765625 18.46875 -13.609375 C 10.78125 -22.453125 6.9375 -33.234375 6.9375 -45.953125 L 6.9375 -76.296875 C 6.9375 -79.066406 7.019531 -81.085938 7.1875 -82.359375 C 7.363281 -83.640625 7.859375 -85.144531 8.671875 -86.875 C 10.285156 -90 14.796875 -91.5625 22.203125 -91.5625 C 30.285156 -91.5625 35.023438 -89.363281 36.421875 -84.96875 C 37.109375 -83.113281 37.453125 -80.164062 37.453125 -76.125 L 37.453125 -45.78125 C 37.453125 -41.039062 38.8125 -37.335938 41.53125 -34.671875 C 44.25 -32.015625 47.890625 -30.6875 52.453125 -30.6875 C 57.023438 -30.6875 60.722656 -32.070312 63.546875 -34.84375 C 66.378906 -37.625 67.796875 -41.269531 67.796875 -45.78125 L 67.796875 -76.46875 C 67.796875 -79.125 67.882812 -81.117188 68.0625 -82.453125 C 68.238281 -83.785156 68.785156 -85.316406 69.703125 -87.046875 C 71.210938 -90.054688 75.664062 -91.5625 83.0625 -91.5625 C 90.34375 -91.5625 94.789062 -90 96.40625 -86.875 C 97.21875 -85.144531 97.707031 -83.613281 97.875 -82.28125 C 98.050781 -80.945312 98.140625 -78.953125 98.140625 -76.296875 L 98.140625 -14.90625 C 98.140625 -12.363281 98.050781 -10.425781 97.875 -9.09375 C 97.707031 -7.769531 97.160156 -6.300781 96.234375 -4.6875 C 94.503906 -1.675781 90.054688 -0.171875 82.890625 -0.171875 C 75.835938 -0.171875 71.5 -1.554688 69.875 -4.328125 C 68.726562 -6.296875 68.15625 -8.664062 68.15625 -11.4375 C 67.6875 -10.632812 66.640625 -9.476562 65.015625 -7.96875 C 63.398438 -6.46875 61.84375 -5.195312 60.34375 -4.15625 C 56.414062 -1.613281 52.140625 -0.34375 47.515625 -0.34375 Z M 47.515625 -0.34375 "/></g></g></g><g fill="#23314f" fill-opacity="1"><g transform="translate(327.823322, 322.934827)"><g><path d="M 57.75 -91.390625 C 69.300781 -91.390625 78.921875 -86.96875 86.609375 -78.125 C 94.296875 -69.28125 98.140625 -58.5 98.140625 -45.78125 L 98.140625 -15.265625 C 98.140625 -12.597656 98.050781 -10.597656 97.875 -9.265625 C 97.707031 -7.941406 97.21875 -6.472656 96.40625 -4.859375 C 94.789062 -1.734375 90.285156 -0.171875 82.890625 -0.171875 C 74.679688 -0.171875 69.941406 -2.3125 68.671875 -6.59375 C 67.972656 -8.550781 67.625 -11.5 67.625 -15.4375 L 67.625 -45.953125 C 67.625 -50.691406 66.265625 -54.390625 63.546875 -57.046875 C 60.835938 -59.703125 57.195312 -61.03125 52.625 -61.03125 C 48.0625 -61.03125 44.363281 -59.644531 41.53125 -56.875 C 38.695312 -54.101562 37.28125 -50.460938 37.28125 -45.953125 L 37.28125 -15.265625 C 37.28125 -12.597656 37.191406 -10.597656 37.015625 -9.265625 C 36.847656 -7.941406 36.300781 -6.472656 35.375 -4.859375 C 33.875 -1.734375 29.421875 -0.171875 22.015625 -0.171875 C 14.734375 -0.171875 10.285156 -1.734375 8.671875 -4.859375 C 7.859375 -6.585938 7.363281 -8.113281 7.1875 -9.4375 C 7.019531 -10.769531 6.9375 -12.769531 6.9375 -15.4375 L 6.9375 -76.8125 C 6.9375 -79.363281 7.019531 -81.300781 7.1875 -82.625 C 7.363281 -83.957031 7.914062 -85.429688 8.84375 -87.046875 C 10.457031 -89.941406 14.910156 -91.390625 22.203125 -91.390625 C 29.253906 -91.390625 33.585938 -90.054688 35.203125 -87.390625 C 36.359375 -85.429688 36.9375 -83.0625 36.9375 -80.28125 C 37.394531 -81.09375 38.429688 -82.25 40.046875 -83.75 C 41.671875 -85.257812 43.234375 -86.472656 44.734375 -87.390625 C 48.671875 -90.054688 53.007812 -91.390625 57.75 -91.390625 Z M 57.75 -91.390625 "/></g></g></g><g fill="#23314f" fill-opacity="1"><g transform="translate(432.895292, 322.934827)"><g><path d="M 35.546875 -45.6875 C 35.546875 -40.78125 37.164062 -36.96875 40.40625 -34.25 C 43.644531 -31.53125 47.082031 -30.171875 50.71875 -30.171875 C 54.363281 -30.171875 57.773438 -31.238281 60.953125 -33.375 C 64.128906 -35.519531 66.703125 -36.59375 68.671875 -36.59375 C 72.140625 -36.59375 76.359375 -33.523438 81.328125 -27.390625 C 83.984375 -24.046875 85.3125 -21.039062 85.3125 -18.375 C 85.3125 -13.988281 82.132812 -9.882812 75.78125 -6.0625 C 69.1875 -1.445312 61.09375 0.859375 51.5 0.859375 C 40.75 0.859375 30.40625 -3.007812 20.46875 -10.75 C 15.726562 -14.445312 11.851562 -19.390625 8.84375 -25.578125 C 5.832031 -31.765625 4.328125 -38.582031 4.328125 -46.03125 C 4.328125 -53.488281 5.832031 -60.253906 8.84375 -66.328125 C 11.851562 -72.398438 15.726562 -77.285156 20.46875 -80.984375 C 30.0625 -88.609375 40.289062 -92.421875 51.15625 -92.421875 C 55.550781 -92.421875 59.828125 -91.8125 63.984375 -90.59375 C 68.148438 -89.382812 71.210938 -88.203125 73.171875 -87.046875 L 75.953125 -85.3125 C 78.035156 -83.925781 79.65625 -82.828125 80.8125 -82.015625 C 83.8125 -79.703125 85.3125 -77.070312 85.3125 -74.125 C 85.3125 -71.175781 84.097656 -67.851562 81.671875 -64.15625 C 77.515625 -57.800781 73.523438 -54.625 69.703125 -54.625 C 67.515625 -54.625 64.394531 -55.894531 60.34375 -58.4375 C 58.257812 -60.40625 55.28125 -61.390625 51.40625 -61.390625 C 47.539062 -61.390625 43.929688 -60 40.578125 -57.21875 C 37.222656 -54.445312 35.546875 -50.601562 35.546875 -45.6875 Z M 35.546875 -45.6875 "/></g></g></g><g fill="#23314f" fill-opacity="1"><g transform="translate(522.53593, 322.934827)"><g><path d="M 6.9375 -76.125 C 6.9375 -78.78125 7.019531 -80.773438 7.1875 -82.109375 C 7.363281 -83.441406 7.859375 -84.972656 8.671875 -86.703125 C 10.285156 -89.710938 14.796875 -91.21875 22.203125 -91.21875 C 27.742188 -91.21875 31.671875 -90.234375 33.984375 -88.265625 C 35.953125 -86.648438 36.992188 -84.164062 37.109375 -80.8125 C 37.222656 -79.65625 37.28125 -77.976562 37.28125 -75.78125 L 37.28125 -15.09375 C 37.28125 -12.425781 37.191406 -10.425781 37.015625 -9.09375 C 36.847656 -7.769531 36.300781 -6.242188 35.375 -4.515625 C 33.875 -1.503906 29.421875 0 22.015625 0 C 14.734375 0 10.285156 -1.5625 8.671875 -4.6875 C 7.859375 -6.414062 7.363281 -7.914062 7.1875 -9.1875 C 7.019531 -10.457031 6.9375 -12.484375 6.9375 -15.265625 Z M 35.453125 -108.296875 C 34.585938 -106.617188 33.054688 -105.429688 30.859375 -104.734375 C 28.671875 -104.046875 25.753906 -103.703125 22.109375 -103.703125 C 18.460938 -103.703125 15.539062 -104.046875 13.34375 -104.734375 C 11.15625 -105.429688 9.625 -106.644531 8.75 -108.375 C 7.882812 -110.113281 7.363281 -111.644531 7.1875 -112.96875 C 7.019531 -114.300781 6.9375 -116.296875 6.9375 -118.953125 C 6.9375 -121.609375 7.019531 -123.601562 7.1875 -124.9375 C 7.363281 -126.269531 7.859375 -127.742188 8.671875 -129.359375 C 10.285156 -132.484375 14.796875 -134.046875 22.203125 -134.046875 C 29.484375 -134.046875 33.875 -132.484375 35.375 -129.359375 C 36.300781 -127.628906 36.847656 -126.097656 37.015625 -124.765625 C 37.191406 -123.429688 37.28125 -121.4375 37.28125 -118.78125 C 37.28125 -116.125 37.191406 -114.128906 37.015625 -112.796875 C 36.847656 -111.472656 36.328125 -109.972656 35.453125 -108.296875 Z M 35.453125 -108.296875 "/></g></g></g><g fill="#23314f" fill-opacity="1"><g transform="translate(566.749404, 322.934827)"><g><path d="M 6.9375 -119.125 C 6.9375 -121.789062 7.019531 -123.785156 7.1875 -125.109375 C 7.363281 -126.441406 7.859375 -127.972656 8.671875 -129.703125 C 10.285156 -132.828125 14.796875 -134.390625 22.203125 -134.390625 C 29.253906 -134.390625 33.644531 -132.828125 35.375 -129.703125 C 36.300781 -127.972656 36.847656 -126.410156 37.015625 -125.015625 C 37.191406 -123.628906 37.28125 -121.609375 37.28125 -118.953125 L 37.28125 -38.671875 C 37.28125 -34.503906 37.625 -31.867188 38.3125 -30.765625 C 39.007812 -29.671875 40.539062 -29.125 42.90625 -29.125 C 45.28125 -29.125 46.875 -29.035156 47.6875 -28.859375 C 48.5 -28.691406 49.484375 -28.203125 50.640625 -27.390625 C 52.953125 -25.890625 54.109375 -21.789062 54.109375 -15.09375 C 54.109375 -7.800781 52.953125 -3.347656 50.640625 -1.734375 C 47.628906 0.347656 40.457031 0.695312 29.125 -0.6875 C 20.226562 -1.84375 14.453125 -4.789062 11.796875 -9.53125 C 8.554688 -15.195312 6.9375 -24.21875 6.9375 -36.59375 Z M 6.9375 -119.125 "/></g></g></g></g></g></svg>